<svg xmlns="http://www.w3.org/2000/svg" xmlns:xlink="http://www.w3.org/1999/xlink" version="1.1" width="30" height="30" viewBox="0 0 30 30">
<defs>
<clipPath id="clip_0">
<path transform="matrix(1,0,0,-1,0,30)" d="M0 30H30V0H0Z"/>
</clipPath>
</defs>
<g>
<g id="layer_1" data-name="Layer 1">
<g clip-path="url(#clip_0)">
<path transform="matrix(1,0,0,-1,16.7928,6.4046)" d="M0 0C-1.037-2.486-1.529-5.01-.873-7.726-.366-9.826-.716-11.943-1.32-14.003-1.806-15.653-2.461-17.231-3.443-18.655-3.655-18.963-3.942-19.5-4.249-19.354-4.562-19.205-4.212-18.703-4.088-18.397-3.506-16.968-3.143-15.483-3.074-13.954-3.031-13.008-3.082-12.003-3.565-11.155-4.758-9.064-4.575-6.95-3.784-4.818-2.796-2.153-1.327 .22 .653 2.268 .78 2.398 .917 2.521 1.054 2.642 1.08 2.665 1.132 2.659 1.234 2.681 .811 1.764 .373 .896 0 0M8.547-1.899C8.295-.956 8.058-.008 7.661 .89 6.485 3.547 4.574 5.288 1.621 5.733 .674 5.876-.279 5.933-1.236 5.892-5.741 5.39-8.355 2.538-10.179-1.296-10.719-2.433-11.147-3.612-11.494-4.819-12.544-8.471-12.951-12.168-12.065-15.911-11.435-18.576-10.117-20.808-7.539-22.024-5.284-23.088-2.884-23.374-.447-22.817 3.644-21.882 6.2-19.189 7.523-15.346 9.027-10.975 9.329-6.467 8.547-1.899" fill="gray"/>
</g>
</g>
</g>
</svg>
