<svg width="39" height="37" viewBox="0 0 39 37" fill="none" xmlns="http://www.w3.org/2000/svg">
<path d="M38.6767 0.344727H0.198792V36.6239H38.6767V0.344727Z" fill=""/>
<path d="M4.85675 33.929H21.488C21.4727 33.7733 21.4575 33.6487 21.4422 33.4928L19.8538 16.5293C19.6553 14.442 21.0909 12.7441 23.1525 12.7441H27.2912C27.276 11.7783 27.1386 11.3266 26.6652 10.6724L23.7482 6.73137V3.7717C23.7482 1.55975 22.4806 0.344727 20.1746 0.344727H7.31556C5.02473 0.344727 3.74189 1.55975 3.74189 3.7717V6.73137L0.840215 10.6724C0.33624 11.3577 0.198792 11.8251 0.198792 12.9155V29.2404C0.198792 32.3558 1.75653 33.929 4.85675 33.929ZM9.60635 6.43538C9.07183 6.43538 8.62894 5.98365 8.62894 5.42288C8.62894 4.87767 9.07183 4.39478 9.60635 4.39478H17.8378C18.3724 4.39478 18.8153 4.87767 18.8153 5.42288C18.8153 5.98365 18.3724 6.43538 17.8378 6.43538H9.60635Z" fill="gray"/>
<path d="M26.7568 36.5773H33.8277C35.8436 36.5773 36.8516 35.5337 37.0654 33.2906L38.6689 16.327C38.7453 15.4548 38.2565 14.8784 37.4167 14.8784H23.1525C22.328 14.8784 21.8392 15.4703 21.9156 16.327L23.5191 33.2906C23.7329 35.5337 24.7256 36.5773 26.7568 36.5773ZM29.2919 15.6728H31.3994L31.4911 14.2086C31.5521 13.4297 31.7813 12.978 32.3463 12.5573L37.4472 8.81882C38.6078 7.97769 37.386 6.18632 36.1491 7.10537L31.2315 10.7349C30.0555 11.6072 29.5515 12.5574 29.414 14.0839L29.2919 15.6728Z" fill="gray"/>
</svg>
