<svg width="42" height="43" viewBox="0 0 42 43" fill="none" xmlns="http://www.w3.org/2000/svg">
<g clip-path="url(#clip0_1313_2224)">
<path d="M35.4856 13.8652C35.178 12.5434 34.7635 11.2487 34.2463 9.99399C33.587 8.22259 32.4636 6.66102 30.9936 5.47282C29.5237 4.28462 27.7613 3.5135 25.8911 3.2402C24.5598 3.03724 23.2122 2.96263 21.8667 3.0174C15.5863 3.69974 11.9518 7.69631 9.40348 13.0297C8.66653 14.6127 8.05654 16.2518 7.57926 17.9314C5.96832 22.9259 5.69465 28.2554 6.78551 33.3886C7.09416 35.2009 7.82467 36.9153 8.91804 38.3933C10.0114 39.8713 11.437 41.0715 13.0798 41.897C16.1534 43.3811 19.6421 43.7693 22.9668 42.9971C28.6622 41.702 32.2132 37.9422 34.107 32.5948C36.1477 26.5696 36.6221 20.1243 35.4856 13.8652ZM23.5795 11.2194C22.0069 14.5778 21.5813 18.3598 22.368 21.9837C22.9412 24.9026 22.7248 27.9215 21.7413 30.7288C21.1124 33.0322 20.1155 35.2187 18.7892 37.2041C18.4967 37.6358 18.0929 38.3738 17.6612 38.1789C17.2295 37.9839 17.6612 37.2737 17.8979 36.7864C18.7113 34.8199 19.1822 32.7288 19.2905 30.6035C19.4303 29.2656 19.194 27.9153 18.6081 26.7044C17.886 25.3641 17.4827 23.8753 17.4295 22.3537C17.3764 20.8322 17.6749 19.3189 18.3018 17.9314C19.6511 14.2491 21.7573 10.8905 24.4846 8.0723C24.6601 7.88544 24.846 7.70877 25.0416 7.54313C25.0416 7.54313 25.1391 7.54313 25.2923 7.54313C24.7074 8.76856 24.1086 9.98007 23.5795 11.2194Z" fill="gray"/>
</g>
<defs>
<clipPath id="clip0_1313_2224">
<rect width="41.776" height="41.776" fill="gray" transform="translate(0.198792 0.875)"/>
</clipPath>
</defs>
</svg>
