<svg width="46" height="56" viewBox="0 0 46 56" fill="none" xmlns="http://www.w3.org/2000/svg">
<g clip-path="url(#clip0_1313_2138)">
<path d="M18.7735 28.2119C23.39 28.2119 27.3623 24.0893 27.3623 18.7213C27.3623 13.4177 23.3685 9.48828 18.7735 9.48828C14.1785 9.48828 10.1847 13.5035 10.1847 18.7642C10.1847 24.0893 14.1785 28.2119 18.7735 28.2119ZM4.36577 48.0951H23.9912C23.9268 47.6011 23.8839 47.0644 23.8839 46.5061V38.8406C23.8839 36.4143 25.1722 34.8468 27.1262 33.7517C24.7642 32.7211 21.9299 32.0554 18.7735 32.0554C7.62952 32.0554 0.694049 39.6994 0.694049 45.2392C0.694049 47.0214 2.06826 48.0951 4.36577 48.0951Z" fill="gray"/>
<path d="M27.4697 46.5705C27.4697 50.6931 29.896 52.1962 35.7364 55.6103C36.2518 55.9324 37.0676 55.9968 37.7333 55.6103C43.5737 52.1748 46 50.6931 46 46.5705V38.8406C46 37.5953 45.5276 36.7793 44.2608 36.2425C42.994 35.7272 39.0216 34.31 37.7977 33.8806C37.0892 33.6443 36.2946 33.6443 35.5002 33.9665C34.448 34.353 30.4757 35.7272 29.2303 36.2425C27.9635 36.7793 27.4697 37.5953 27.4697 38.8406V46.5705Z" fill="gray"/>
<path d="M35.4359 50.6936C35.0924 50.6936 34.6414 50.5433 34.3623 50.2212L30.7335 46.249C30.4758 45.9699 30.3899 45.5833 30.3899 45.2612C30.3899 44.5097 30.9697 43.9085 31.7213 43.9085C32.1721 43.9085 32.5157 44.1232 32.7519 44.3808L35.3929 47.2367L40.6321 39.9791C40.8683 39.6141 41.2763 39.3779 41.7487 39.3779C42.4787 39.3779 43.1014 39.9576 43.1014 40.7092C43.1014 40.9453 43.0155 41.246 42.8222 41.5037L36.5739 50.1784C36.3377 50.4789 35.9082 50.6936 35.4359 50.6936Z" fill="black"/>
</g>
<defs>
<clipPath id="clip0_1313_2138">
<rect width="45.306" height="54.8783" fill="gray" transform="translate(0.495422 0.550781)"/>
</clipPath>
</defs>
</svg>
