<svg width="39" height="38" viewBox="0 0 39 38" fill="none" xmlns="http://www.w3.org/2000/svg">
<path d="M38.8753 0.794922H0.3974V37.0741H38.8753V0.794922Z" fill=""/>
<path d="M5.05536 34.3792H21.6866C21.6713 34.2235 21.6561 34.0988 21.6408 33.943L20.0524 16.9795C19.8539 14.8922 21.2895 13.1943 23.3511 13.1943H27.4898C27.4746 12.2285 27.3372 11.7768 26.8638 11.1226L23.9468 7.18156V4.22189C23.9468 2.00994 22.6792 0.794922 20.3732 0.794922H7.51417C5.22334 0.794922 3.9405 2.00994 3.9405 4.22189V7.18156L1.03882 11.1226C0.534848 11.8079 0.3974 12.2753 0.3974 13.3656V29.6906C0.3974 32.806 1.95514 34.3792 5.05536 34.3792ZM9.80496 6.88558C9.27043 6.88558 8.82755 6.43385 8.82755 5.87307C8.82755 5.32786 9.27043 4.84498 9.80496 4.84498H18.0364C18.571 4.84498 19.0139 5.32786 19.0139 5.87307C19.0139 6.43385 18.571 6.88558 18.0364 6.88558H9.80496Z" fill="white"/>
<path d="M26.9554 37.0275H34.0263C36.0422 37.0275 37.0502 35.9839 37.264 33.7407L38.8675 16.7772C38.9439 15.9049 38.4551 15.3285 37.6153 15.3285H23.3511C22.5266 15.3285 22.0378 15.9205 22.1142 16.7772L23.7177 33.7407C23.9315 35.9839 24.9243 37.0275 26.9554 37.0275ZM29.4906 16.123H31.598L31.6897 14.6588C31.7507 13.8799 31.9799 13.4281 32.5449 13.0075L37.6458 9.26902C38.8064 8.42789 37.5846 6.63651 36.3477 7.55557L31.4301 11.1851C30.2541 12.0574 29.7502 13.0075 29.6127 14.5341L29.4906 16.123Z" fill="green"/>
</svg>
