<svg id="fed41338-45c2-4915-b6d1-a66db2570f8e" data-name="Layer 1" xmlns="http://www.w3.org/2000/svg" xmlns:xlink="http://www.w3.org/1999/xlink" width="1506" height="2048" viewBox="0 0 1506 2048">
  <defs>
    <style>
      .b4aa99ec-03d7-4066-94b6-9f0030ded5eb{fill:url(#afe5c7ec-f7ff-4fd6-9eb9-e83fd558312d);}
      .bf3a5601-786f-42ec-ab45-a75a8c0b4598{fill:url(#f942c284-10fa-4145-831e-cb2a9f186f73);}
      .a3d2eaf9-3c8b-45ce-b879-ca4256709ef0{fill:url(#a52e0172-a96f-4dcc-9d07-1fafdd6a37eb);}
      .bceadbcc-39b5-4f92-87d6-0ce28f88a484{fill:url(#b8651025-f523-4856-9b41-518b1f59b7cf);}
      .e9dc54a3-17e8-40cb-b71c-5fdc5f9a5c27{fill:url(#aea2e210-3080-4673-9e0b-3330f1511b63);}
      .b62c424b-41ba-4405-8aac-7f3b50b9a4cc{fill:url(#be830894-7c52-4171-9fb4-8fe7cbdd9a3b);}
      .ec175c7b-5dfe-4478-b20e-7247d86d4998{fill:url(#a7639de8-be60-4d33-8045-4676cbada937);}
      .e9943996-65f0-4a26-8135-c1cee464030b{fill:url(#aaa5fd91-eccc-480e-98fb-c9261d76864a);}
      .a3d087fa-85aa-4d75-8981-c932cd28780c{fill:url(#bb9574f0-3ec4-4ff9-80d3-2f6327bef6e7);}
      .ec967184-8d77-459c-93fd-58625140b900{fill:url(#bc25ff34-58ee-4bf1-9c2c-5c9eae2bf2fc);}
      .abcc9b66-94e6-4750-9cf4-b7637a2e8de8{fill:url(#e952bbb9-283a-4255-adf8-6d4ae52e3126);}
      .b02c7905-bb11-42d6-8d13-633a4c0946d1{fill:url(#ab368ebd-56a5-420b-9e34-cf0308f399ca);}
      .b5e1604b-2ae7-407b-8366-2293f97ada46{fill:url(#bfe58693-1cb9-4fc5-bf4d-085dc23c0798);}
    </style>
    <linearGradient id="afe5c7ec-f7ff-4fd6-9eb9-e83fd558312d" x1="410.27" y1="378.84" x2="541.87" y2="665.96" gradientUnits="userSpaceOnUse">
      <stop offset="0.03" stop-color="#FFFFFF"/>
      <stop offset="0.45" stop-color="#FFFFFF"/>
      <stop offset="0.79" stop-color="#FFFFFF"/>
      <stop offset="1" stop-color="#FFFFFF"/>
    </linearGradient>
    <linearGradient id="f942c284-10fa-4145-831e-cb2a9f186f73" x1="730.69" y1="231.98" x2="862.29" y2="519.11" xlink:href="#afe5c7ec-f7ff-4fd6-9eb9-e83fd558312d"/>
    <linearGradient id="a52e0172-a96f-4dcc-9d07-1fafdd6a37eb" x1="-112.96" y1="618.65" x2="18.63" y2="905.78" xlink:href="#afe5c7ec-f7ff-4fd6-9eb9-e83fd558312d"/>
    <linearGradient id="b8651025-f523-4856-9b41-518b1f59b7cf" x1="129.21" y1="507.66" x2="260.81" y2="794.78" xlink:href="#afe5c7ec-f7ff-4fd6-9eb9-e83fd558312d"/>
    <linearGradient id="aea2e210-3080-4673-9e0b-3330f1511b63" x1="208.46" y1="471.34" x2="340.06" y2="758.46" xlink:href="#afe5c7ec-f7ff-4fd6-9eb9-e83fd558312d"/>
    <linearGradient id="be830894-7c52-4171-9fb4-8fe7cbdd9a3b" x1="-184.31" y1="651.36" x2="-52.71" y2="938.48" xlink:href="#afe5c7ec-f7ff-4fd6-9eb9-e83fd558312d"/>
    <linearGradient id="a7639de8-be60-4d33-8045-4676cbada937" x1="-397.71" y1="749.16" x2="-266.11" y2="1036.29" xlink:href="#afe5c7ec-f7ff-4fd6-9eb9-e83fd558312d"/>
    <linearGradient id="aaa5fd91-eccc-480e-98fb-c9261d76864a" x1="38.59" y1="549.19" x2="170.19" y2="836.32" xlink:href="#afe5c7ec-f7ff-4fd6-9eb9-e83fd558312d"/>
    <linearGradient id="bb9574f0-3ec4-4ff9-80d3-2f6327bef6e7" x1="233.41" y1="459.9" x2="365.01" y2="747.02" xlink:href="#afe5c7ec-f7ff-4fd6-9eb9-e83fd558312d"/>
    <linearGradient id="bc25ff34-58ee-4bf1-9c2c-5c9eae2bf2fc" x1="428.23" y1="370.61" x2="559.83" y2="657.73" xlink:href="#afe5c7ec-f7ff-4fd6-9eb9-e83fd558312d"/>
    <linearGradient id="e952bbb9-283a-4255-adf8-6d4ae52e3126" x1="623.05" y1="281.31" x2="754.65" y2="568.44" xlink:href="#afe5c7ec-f7ff-4fd6-9eb9-e83fd558312d"/>
    <linearGradient id="ab368ebd-56a5-420b-9e34-cf0308f399ca" x1="509.32" y1="333.44" x2="640.92" y2="620.57" xlink:href="#afe5c7ec-f7ff-4fd6-9eb9-e83fd558312d"/>
    <linearGradient id="bfe58693-1cb9-4fc5-bf4d-085dc23c0798" x1="178.07" y1="485.26" x2="309.67" y2="772.39" xlink:href="#afe5c7ec-f7ff-4fd6-9eb9-e83fd558312d"/>
  </defs><path class="b4aa99ec-03d7-4066-94b6-9f0030ded5eb" d="M1075.4,1641.5,962.55,1146.83a.85.85,0,0,0-.84-.66H902.56a.87.87,0,0,0-.84.66L788.88,1641.5a.84.84,0,0,0,.84,1h70.85a.86.86,0,0,0,.85-.68l21.22-106h.07L896.15,1469h-.69l35.47-179.18a.87.87,0,0,1,.85-.69h0a.87.87,0,0,1,.85.69l34,171.83,14.93,74.27h.06l21.16,105.66.07.32a.85.85,0,0,0,.84.68h70.86A.85.85,0,0,0,1075.4,1641.5Z"/><path class="bf3a5601-786f-42ec-ab45-a75a8c0b4598" d="M1380.43,1355.92V1152.3a6.19,6.19,0,0,0-6.26-6.13h-59.8a6.19,6.19,0,0,0-6.26,6.13v164.84a6.09,6.09,0,0,1-2.89,5.16l-41.78,26.14-41.88-26.2a5.9,5.9,0,0,1-2.8-5V1152.1a6,6,0,0,0-6-5.93H1152.5a6,6,0,0,0-6.06,5.93V1356a5.9,5.9,0,0,0,2.8,5l47,29.43-49.84,31.17,0,0v214.77a6.19,6.19,0,0,0,6.25,6.12h58.45a6.19,6.19,0,0,0,6.26-6.12V1464.59a6.1,6.1,0,0,1,2.88-5.15l43.14-27,43.22,27a5.91,5.91,0,0,1,2.8,5v172.12a6,6,0,0,0,6,5.92h58.85a6,6,0,0,0,6.06-5.92v-215l-49.84-31.17,47-29.37A6.1,6.1,0,0,0,1380.43,1355.92Z"/><path class="a3d2eaf9-3c8b-45ce-b879-ca4256709ef0" d="M353.43,1146.17H294.72a6.07,6.07,0,0,0-6.13,6v225.06l-87.87-55a5.94,5.94,0,0,1-2.83-5v-165a6.06,6.06,0,0,0-6.12-6H131.69a6.06,6.06,0,0,0-6.12,6v484.37a6.05,6.05,0,0,0,6.12,6h58.72a6.05,6.05,0,0,0,6.12-6V1403.66l89.23,55.81a6,6,0,0,1,2.82,5v172a6.06,6.06,0,0,0,6.13,6h58.71a6.05,6.05,0,0,0,6.12-6V1449.46a1.79,1.79,0,0,0,0-.23V1152.17A6.07,6.07,0,0,0,353.43,1146.17Z"/><path class="bceadbcc-39b5-4f92-87d6-0ce28f88a484" d="M430.58,1382.85c.88-73.48,19.55-141.79,62.66-195.28,15.29-19,32.21-34.43,53-40,11.5-3.08,20.21,3,26.78,15.46,9.94,18.84,12.7,41,14.69,63.47,3.22,36.19-3.14,70.75-9.2,105.34-7.56,43.15-15,86.28-18.31,130.59-3.5,47.38,1.66,93,13.11,137.65,1.58,6.15,2.84,12.49,3.87,18.86,1.7,10.49-.94,16.77-8.2,20.79-9.26,5.13-18.41,2.43-27.14-1.83-37.45-18.29-64.66-53.43-83.92-100.63C439.06,1491.14,430.89,1441,430.58,1382.85Z"/><path class="e9dc54a3-17e8-40cb-b71c-5fdc5f9a5c27" d="M586.33,1558.61c-.06-64.59,8.7-115.42,19.94-165.65,8.44-37.75,14.13-76,11.72-116-1.65-27.33-7.5-52.94-15.35-77.87-3.29-10.43-6.79-20.79-9.43-31.54-3.85-15.71.65-23.27,12.61-21,18.33,3.43,34.55,14.5,49.8,28.41,32.71,29.86,53.24,72.5,65,123.15,19.64,84.38,17,167.32-12.16,247.16-12.38,33.9-30.17,61.7-54,81.31-10.55,8.66-21.85,14.32-34.24,15.71-11.81,1.33-19.67-6-24.71-20.21C587.08,1598.33,586.6,1572.68,586.33,1558.61Z"/><path class="b62c424b-41ba-4405-8aac-7f3b50b9a4cc" d="M402.76,1836.77a163.76,163.76,0,0,1,44.66,5.91,108.32,108.32,0,0,1,36.46,17.74,85.07,85.07,0,0,1,24.59,29.78q9.06,18,9.06,42t-9.06,42A84.86,84.86,0,0,1,483.88,2004a99.68,99.68,0,0,1-36.46,17.11,191.51,191.51,0,0,1-89.32,0A99.46,99.46,0,0,1,321.64,2004a84.78,84.78,0,0,1-24.6-29.77q-9.06-18-9.06-42t9.06-42a85,85,0,0,1,24.6-29.78,108,108,0,0,1,36.46-17.74A163.6,163.6,0,0,1,402.76,1836.77Zm0,31.26a83.78,83.78,0,0,0-27,4.43,77,77,0,0,0-23.52,12.67,63.05,63.05,0,0,0-16.61,20.07,56.94,56.94,0,0,0-6.26,27q0,15.21,6.26,27a62.8,62.8,0,0,0,16.61,20.06A76.78,76.78,0,0,0,375.79,1992a84.28,84.28,0,0,0,53.93,0,76.66,76.66,0,0,0,23.52-12.68,62.8,62.8,0,0,0,16.61-20.06q6.25-11.82,6.26-27a56.94,56.94,0,0,0-6.26-27,63.05,63.05,0,0,0-16.61-20.07,76.85,76.85,0,0,0-23.52-12.67A83.81,83.81,0,0,0,402.76,1868Z"/><path class="ec175c7b-5dfe-4478-b20e-7247d86d4998" d="M214.39,1979.08a77.77,77.77,0,0,1-14.43,7.43,160.1,160.1,0,0,1-22,7,99.71,99.71,0,0,1-23.73,3,71,71,0,0,1-24.6-4.43,64.69,64.69,0,0,1-21.57-13.1,67.12,67.12,0,0,1-15.32-20.69A61.84,61.84,0,0,1,86.91,1931a66.87,66.87,0,0,1,5.18-27,53.88,53.88,0,0,1,14.67-19.85A63.66,63.66,0,0,1,129,1872a93.92,93.92,0,0,1,28.27-4,112.81,112.81,0,0,1,23.73,2.32,105.83,105.83,0,0,1,18.77,5.7,50.27,50.27,0,0,1,12.3,7,24.57,24.57,0,0,1,2.34,2.19v-37.37l-3.64-1.36a184.55,184.55,0,0,0-23.95-6.76,142,142,0,0,0-30-3,145,145,0,0,0-41.2,5.91,107,107,0,0,0-35.6,18,92.25,92.25,0,0,0-25,29.78q-9.49,17.74-9.49,41.4t9.49,41.6a93.83,93.83,0,0,0,24.6,30,97.1,97.1,0,0,0,34.52,17.52,143.23,143.23,0,0,0,39.26,5.49,166,166,0,0,0,61-10.92Z"/><path class="e9943996-65f0-4a26-8135-c1cee464030b" d="M632.79,2011.79a6.73,6.73,0,0,1-.13-1.12V1946H708.6a29.38,29.38,0,0,1,6.68.59v-32.37a32.75,32.75,0,0,1-6.68.52H632.66V1870H749.59c1.34,0,2.56,0,3.68.14v-31.56c-1.12.1-2.34.16-3.68.16H591.13v12.86a7.47,7.47,0,0,1,.1,1.08v158a7.41,7.41,0,0,1-.1,1.18v1.89c0,.09,0,.18,0,.26v10.6h41.67Z"/><path class="a3d087fa-85aa-4d75-8981-c932cd28780c" d="M868.54,2011.79a5.82,5.82,0,0,1-.14-1.12V1946h75.94a29.32,29.32,0,0,1,6.68.59v-32.37a32.68,32.68,0,0,1-6.68.52H868.4V1870H985.33c1.34,0,2.56,0,3.69.14v-31.56c-1.13.1-2.35.16-3.69.16H826.88v12.86a9.21,9.21,0,0,1,.1,1.08v158a8.79,8.79,0,0,1-.1,1.18v1.89a2.11,2.11,0,0,1,0,.26v10.6h41.68Z"/><path class="ec967184-8d77-459c-93fd-58625140b900" d="M1221.08,1838.75h-116.8v-.16h-41.67v10.6c0,.08,0,.17,0,.26v2.16a7.47,7.47,0,0,1,.1,1.08V2010.5a7.34,7.34,0,0,1-.1,1.08v2.16c0,.09,0,.18,0,.26v10.6h41.67v-.16h116.8c1.34,0,2.56.06,3.68.16V1993c-1.12.09-2.34.15-3.68.15H1104.15v-44.78h75.94a33.31,33.31,0,0,1,6.67.52v-34.67a32.57,32.57,0,0,1-6.67.52h-75.94V1870h116.93c1.34,0,2.56,0,3.68.14v-31.56C1223.64,1838.69,1222.42,1838.75,1221.08,1838.75Z"/><path class="abcc9b66-94e6-4750-9cf4-b7637a2e8de8" d="M1456.82,1838.75H1340v-.16h-41.67v10.6c0,.08,0,.17,0,.26v2.16a7.45,7.45,0,0,1,.11,1.08V2010.5a7.31,7.31,0,0,1-.11,1.08v2.16c0,.09,0,.18,0,.26v10.6H1340v-.16h116.8c1.34,0,2.56.06,3.69.16V1993c-1.13.09-2.35.15-3.69.15H1339.89v-44.78h75.94a33.42,33.42,0,0,1,6.68.52v-34.67a32.68,32.68,0,0,1-6.68.52h-75.94V1870h116.93c1.34,0,2.56,0,3.69.14v-31.56C1459.38,1838.69,1458.16,1838.75,1456.82,1838.75Z"/><path class="b02c7905-bb11-42d6-8d13-633a4c0946d1" d="M1027.19,248.13,996.71,233c54.47-71,107.78-140.56,162.15-211.45,4.89,2.5,12.26,3.78,14.05,7.58,13,27.57,45.1,46.21,28.82,87.18-11.23,28.24-9.18,63.09-6.68,94.49,2,24.87,15.44,48.66,20.51,73.56,4.43,21.75,7.15,44.6,5.49,66.6-2.67,35.3-7.09,70.89-15.51,105.24-6.32,25.79-20.1,49.83-30.55,74.65-36.17-9.42-17.65,46.69-51.7,41.87-2.94-.42-8.79,14.41-12.21,22.6-6.93,16.58-9.73,35.93-20.25,49.76-32.52,42.76-25.14,89.61-17.73,136.23,1.07,6.76,16.91,16.52,25.36,16,41.38-2.48,75.15,12.53,112.85,38.95l-111.88,26.84c48.06,0,95.15.06,142.24,0,28.64,0,56.21,4.6,73.21,29.49,10.5,15.38,16.33,33.82,26.58,55.88l-284.32,38.2.45,6.37q114.15-5.19,228.3-10.43c17.22-.8,34.61-.77,51.58-3.33,35.39-5.33,63.74.88,86.38,32.18,9.17,12.68,30.38,17,49.05,26.66,1.38,17.77-5,29.26-30.28,29.24q-698.47-.69-1396.95-.52c-3.26,0-6.52-1.56-12.75-3.14,1.53-11.82,3-23.51,4.95-38.18H198l.31-5.83L80.74,1005.2c-.61-50.45,3.62-47.8,50.09-43.59,102.67,9.28,206,11.66,309.12,15.72,6.45.25,17.35-8.09,19.34-14.47,18.4-59,55.51-113.45,45.73-179.54-.85-5.78,6.37-13.22,10.87-19.15,15.18-20,30.82-39.67,42.13-65.7-69.71,51-141,83.31-228.29,46.47l-73.55-89.38,6.88-7.59c8.15,2.78,16.44,5.22,24.43,8.4,60.24,24,117.13,14.59,164.51-25.9,34-29.1,59.05-68.1,91.07-99.8,16.83-16.66,39.65-27.79,60.53-40.18,20.31-12.06,41-23.75,62.64-33.3,16.91-7.48,35.6-16.51,53.21-16,38.73,1.2,72.65-8,103.57-29.89,40.29-28.47,77.39-63.64,121.65-83.67C984.92,309.45,995.23,271.86,1027.19,248.13ZM842,637.56c-10.75,21-26.5,44.64-35.42,70.57C790.15,755.75,761.7,793.34,722,824.26c-39.28,30.63-41.54,40.6-23.47,93.56l240.58-72.56c-44.82-31.58-27.06-68.59-27.37-103.32-.2-23.34-3.19-46.92-7.87-69.82-1.57-7.66-11.12-15.44-19-19.77C874.57,646.65,862.28,644.3,842,637.56ZM512.74,979.07c27.78-8,52.54-16,77.78-22.23,58.1-14.25,58.18-13.88,48-72.71-.57-3.32-.56-6.77-1.42-10-6-22.81-13.21-43.87,12.19-63.17,9.29-7.06,7.83-27.69,11.88-44.69C581.25,784.6,505.52,894.27,512.74,979.07Zm514.9-160.19c-6.83-44.84-12.41-88-20.78-130.73-1.59-8.06-14.24-14-21.79-21-5,7.2-13.81,14.09-14.44,21.65-2.74,32.48-4.51,65.19-4,97.77C967.54,837.22,979.62,843.25,1027.64,818.88Z"/><rect class="b5e1604b-2ae7-407b-8366-2293f97ada46" x="45.49" y="1721.32" width="1415.02" height="36.67"/></svg>