<svg width="46" height="55" viewBox="0 0 46 55" fill="none" xmlns="http://www.w3.org/2000/svg">
<path d="M18.7735 27.2119C23.39 27.2119 27.3623 23.0893 27.3623 17.7213C27.3623 12.4177 23.3685 8.48828 18.7735 8.48828C14.1785 8.48828 10.1847 12.5035 10.1847 17.7642C10.1847 23.0893 14.1785 27.2119 18.7735 27.2119ZM4.36577 47.0951H23.9912C23.9268 46.6011 23.8839 46.0644 23.8839 45.5061V37.8406C23.8839 35.4143 25.1722 33.8468 27.1262 32.7517C24.7642 31.7211 21.9299 31.0554 18.7735 31.0554C7.62952 31.0554 0.694049 38.6994 0.694049 44.2392C0.694049 46.0214 2.06826 47.0951 4.36577 47.0951Z" fill="white"/>
<path d="M27.4697 45.5705C27.4697 49.6931 29.896 51.1962 35.7364 54.6103C36.2518 54.9324 37.0676 54.9968 37.7333 54.6103C43.5737 51.1748 46 49.6931 46 45.5705V37.8406C46 36.5953 45.5276 35.7793 44.2608 35.2425C42.994 34.7272 39.0216 33.31 37.7977 32.8806C37.0892 32.6443 36.2946 32.6443 35.5002 32.9665C34.448 33.353 30.4757 34.7272 29.2303 35.2425C27.9635 35.7793 27.4697 36.5953 27.4697 37.8406V45.5705Z" fill="white"/>
<path d="M35.4359 49.6936C35.0924 49.6936 34.6414 49.5433 34.3623 49.2212L30.7335 45.249C30.4758 44.9699 30.3899 44.5833 30.3899 44.2612C30.3899 43.5097 30.9697 42.9085 31.7213 42.9085C32.1721 42.9085 32.5157 43.1232 32.7519 43.3808L35.3929 46.2367L40.6321 38.9791C40.8683 38.6141 41.2763 38.3779 41.7487 38.3779C42.4787 38.3779 43.1014 38.9576 43.1014 39.7092C43.1014 39.9453 43.0155 40.246 42.8222 40.5037L36.5739 49.1784C36.3377 49.4789 35.9082 49.6936 35.4359 49.6936Z" fill="black"/>
</svg>
