<svg width="43" height="42" viewBox="0 0 43 42" fill="none" xmlns="http://www.w3.org/2000/svg">
<g clip-path="url(#clip0_1313_2113)">
<path d="M35.6843 13.8652C35.3767 12.5434 34.9622 11.2487 34.445 9.99399C33.7857 8.22259 32.6622 6.66102 31.1923 5.47282C29.7224 4.28462 27.96 3.5135 26.0898 3.2402C24.7585 3.03724 23.4108 2.96263 22.0653 3.0174C15.785 3.69974 12.1505 7.69631 9.60215 13.0297C8.8652 14.6127 8.25521 16.2518 7.77793 17.9314C6.16699 22.9259 5.89331 28.2554 6.98418 33.3886C7.29283 35.2009 8.02334 36.9153 9.11671 38.3933C10.2101 39.8713 11.6357 41.0715 13.2784 41.897C16.352 43.3811 19.8408 43.7693 23.1654 42.9971C28.8609 41.702 32.4119 37.9422 34.3057 32.5948C36.3464 26.5696 36.8208 20.1243 35.6843 13.8652ZM23.7781 11.2194C22.2056 14.5778 21.7799 18.3598 22.5666 21.9837C23.1398 24.9026 22.9235 27.9215 21.94 30.7288C21.3111 33.0322 20.3142 35.2187 18.9878 37.2041C18.6954 37.6358 18.2916 38.3738 17.8599 38.1789C17.4282 37.9839 17.8599 37.2737 18.0966 36.7864C18.9099 34.8199 19.3809 32.7288 19.4891 30.6035C19.629 29.2656 19.3927 27.9153 18.8068 26.7044C18.0847 25.3641 17.6813 23.8753 17.6282 22.3537C17.5751 20.8322 17.8736 19.3189 18.5004 17.9314C19.8498 14.2491 21.956 10.8905 24.6833 8.0723C24.8587 7.88544 25.0447 7.70877 25.2403 7.54313C25.2403 7.54313 25.3378 7.54313 25.491 7.54313C24.9061 8.76856 24.3073 9.98007 23.7781 11.2194Z" fill="white"/>
</g>
<defs>
<clipPath id="clip0_1313_2113">
<rect width="41.776" height="41.776" fill="white" transform="translate(0.397461 0.222656)"/>
</clipPath>
</defs>
</svg>
