<svg id="b19a68a4-9b60-4248-8e78-347704cdb61d" data-name="Layer 1" xmlns="http://www.w3.org/2000/svg" width="1417.32" height="1417.32" viewBox="0 0 1417.32 1417.32"><defs><style>.f2c9eb68-d467-4f21-9f1e-2119ea6c5b5a{fill:#231f20;}.a6641ebd-81fb-47fc-8634-bef6167b7005{fill:#fff;}</style></defs><circle class="f2c9eb68-d467-4f21-9f1e-2119ea6c5b5a" cx="708.66" cy="708.66" r="707.82"/><path class="a6641ebd-81fb-47fc-8634-bef6167b7005" d="M575.75,273.49l-29,12.08-45-107.8-25,10.42,45,107.8-28.7,12L410.87,110.83l28.7-12L466.75,164l24.95-10.41L464.52,88.44l29-12.09Z"/><path class="a6641ebd-81fb-47fc-8634-bef6167b7005" d="M689.84,211.66q1.92,14.75,1.31,23.82t-4.95,14.41q-4.35,5.34-12.74,7.92a169.56,169.56,0,0,1-44.52,5.76q-8.78-.36-14.2-4.43t-8.33-12.69q-2.88-8.62-4.79-23.37L585.06,95.16q-1.9-14.75-1.29-23.69t4.83-14.26q4.23-5.31,12.61-7.9a170.69,170.69,0,0,1,44.52-5.76q8.78.36,14.34,4.42t8.44,12.54q2.87,8.49,4.78,23.24ZM642.18,87.77a75.61,75.61,0,0,0-1.53-8.66,9.55,9.55,0,0,0-2.53-4.85,7.73,7.73,0,0,0-4.34-1.9,27,27,0,0,0-6.66.18q-8.58,1.11-10.57,4.64t-.65,14l16.56,127.92A78.1,78.1,0,0,0,634,228a10.45,10.45,0,0,0,2.55,5,7.32,7.32,0,0,0,4.36,2,26.4,26.4,0,0,0,6.65-.18,29.83,29.83,0,0,0,6.89-1.57,7.15,7.15,0,0,0,3.81-3.22,11.3,11.3,0,0,0,1.18-5.61,76.62,76.62,0,0,0-.72-8.76Z"/><path class="a6641ebd-81fb-47fc-8634-bef6167b7005" d="M782.16,261.61l6.42-47.15-26-3.54-6.42,47.15-30-4.08L749.29,84.12q2-14.48,4.91-23.07t8.41-12.64q5.46-4,13.83-4.39a123.46,123.46,0,0,1,21.24,1.39A125.08,125.08,0,0,1,819.56,50q8.49,2.79,12.81,8.15t5,14.33q.68,9-1.28,23.43L813,265.81Zm12.3-188.53a26.82,26.82,0,0,0-6.66-.23,7.73,7.73,0,0,0-4.35,1.87,9.61,9.61,0,0,0-2.56,4.83,73.85,73.85,0,0,0-1.59,8.66L766,185.73l26,3.54,13.28-97.52a59,59,0,0,0,.65-8.78,11.36,11.36,0,0,0-1.19-5.35,7,7,0,0,0-3.69-3A28.17,28.17,0,0,0,794.46,73.08Z"/><path class="a6641ebd-81fb-47fc-8634-bef6167b7005" d="M1000.33,107.53,942.66,194,924.92,307.43,895,295.54l18.68-95.29-51.34,82.3-28.9-11.48,64-95L913.89,73.16,943.54,85,929.1,167.38l44.34-70.54Z"/><path class="a6641ebd-81fb-47fc-8634-bef6167b7005" d="M824.69,772.72c-2.52,3.75-6.9,7.36-7.22,11.3-1.37,17-2.25,34-2,51.05.43,26.43,6.48,29.58,30.48,16.85-3.41-23.41-6.2-46-10.39-68.25C834.79,779.46,828.46,776.34,824.69,772.72Z"/><path class="a6641ebd-81fb-47fc-8634-bef6167b7005" d="M784.11,775.3c-.78-4-5.56-8.06-9.49-10.32-5.18-3-11.32-4.21-21.49-7.72-5.37,10.94-13.24,23.3-17.7,36.84C727.24,819,713,838.59,693.18,854.73c-19.64,16-20.77,21.2-11.73,48.85L801.73,865.7c-22.41-16.49-13.53-35.81-13.68-53.94A199.51,199.51,0,0,0,784.11,775.3Z"/><path class="a6641ebd-81fb-47fc-8634-bef6167b7005" d="M656.82,847.78c4.64-3.68,3.91-14.45,5.94-23.33-40,9.58-77.83,66.84-74.22,111.11,13.89-4.18,26.27-8.37,38.89-11.6,29-7.44,29.09-7.25,24-38-.28-1.73-.28-3.53-.71-5.23C647.71,868.86,644.12,857.86,656.82,847.78Z"/><path class="a6641ebd-81fb-47fc-8634-bef6167b7005" d="M397.59,926.44c51.34,4.85,103,6.09,154.55,8.21,3.23.13,8.68-4.22,9.68-7.55,9.19-30.79,27.75-59.24,22.86-93.74-.43-3,3.18-6.9,5.43-10,7.59-10.44,15.41-20.71,21.07-34.3-34.85,26.61-70.5,43.49-114.14,24.26l-36.77-46.66,3.44-4c4.07,1.45,8.22,2.73,12.21,4.39,30.12,12.52,58.56,7.62,82.25-13.53,17-15.19,29.52-35.55,45.53-52.1,8.42-8.7,19.82-14.51,30.26-21a295.86,295.86,0,0,1,31.32-17.39c8.46-3.9,17.8-8.61,26.61-8.33,19.36.63,36.32-4.2,51.78-15.6,20.14-14.87,38.69-33.23,60.82-43.69,20.12-9.51,25.28-29.13,41.26-41.52l-15.24-7.89,81.07-110.4c2.45,1.31,6.13,2,7,4,6.48,14.4,22.55,24.12,14.41,45.52-5.61,14.74-4.59,32.94-3.34,49.33,1,13,7.72,25.4,10.26,38.41,2.21,11.35,3.57,23.28,2.74,34.77-1.33,18.43-3.54,37-7.75,55-3.16,13.46-10,26-15.28,39-18.08-4.92-8.82,24.38-25.84,21.86-1.47-.22-4.4,7.53-6.11,11.8-3.46,8.66-4.86,18.76-10.12,26C861.31,783.52,865,808,868.7,832.33c.54,3.52,8.46,8.62,12.68,8.36,20.69-1.3,37.57,6.53,56.42,20.33l-55.93,14c24,0,47.57,0,71.11,0,14.32,0,28.1,2.4,36.61,15.4,5.25,8,8.16,17.65,13.29,29.17L860.72,939.54l.23,3.33q57.07-2.72,114.14-5.44c8.61-.42,17.22-1.21,25.79-1.74s11.23-.36,16.26-.46a392.26,392.26,0,0,0,71.71-226.57C1088.85,494,918.63,320,708.66,320S328.47,494,328.47,708.66a393,393,0,0,0,65,217.39Z"/><path class="a6641ebd-81fb-47fc-8634-bef6167b7005" d="M449,981.43a4.63,4.63,0,0,0-3.16,7.88c68.27,66.86,160.82,108,262.83,108s194.39-41.07,262.64-107.8a4.64,4.64,0,0,0-3.15-7.89Q708.58,981.44,449,981.43Z"/><polygon class="a6641ebd-81fb-47fc-8634-bef6167b7005" points="330.76 277.35 349.84 288.67 366.51 274.02 361.63 295.67 380.72 307 358.62 309.05 353.75 330.7 344.97 310.32 322.87 312.38 339.54 297.73 330.76 277.35"/><polygon class="a6641ebd-81fb-47fc-8634-bef6167b7005" points="1086.44 273.9 1077.83 294.35 1094.62 308.86 1072.51 306.99 1063.89 327.44 1058.84 305.83 1036.73 303.96 1055.72 292.48 1050.66 270.87 1067.45 285.38 1086.44 273.9"/><path class="a6641ebd-81fb-47fc-8634-bef6167b7005" d="M284.53,512.22,145.75,430.53,155.47,414l98,57.7.42-.71-90.48-70.52,10.65-18.09,106.27,45.29.42-.71L182,368.88l9.82-16.69,138.78,81.68L314,462.15l-99.49-44.36-.41.7,87,65.62Z"/><path class="a6641ebd-81fb-47fc-8634-bef6167b7005" d="M131.91,562.21a97,97,0,0,1-16.71-6.64q-6-3.29-8.3-8a19.37,19.37,0,0,1-1.38-11.22,128.26,128.26,0,0,1,10.14-32.29c2-3.92,4.52-6.69,7.53-8.31s6.77-2.18,11.31-1.68A96.41,96.41,0,0,1,152,498.23l92.77,29.14A94.62,94.62,0,0,1,261.39,534q5.92,3.25,8.23,7.82A18.83,18.83,0,0,1,271,552.93a128,128,0,0,1-10.14,32.28,19.39,19.39,0,0,1-7.56,8.42q-4.54,2.52-11.25,1.81a95.9,95.9,0,0,1-17.42-4.09Zm99.85,6.59a59.84,59.84,0,0,0,6.41,1.69,7.39,7.39,0,0,0,4.13-.2,5.84,5.84,0,0,0,2.66-2.37,20.66,20.66,0,0,0,2-4.61q2-6.22.17-8.71t-9.37-4.86L145,520.59a60,60,0,0,0-6.61-1.75,7.79,7.79,0,0,0-4.22.17,5.47,5.47,0,0,0-2.76,2.34,20.26,20.26,0,0,0-2,4.61,22.35,22.35,0,0,0-1.1,5.21,5.4,5.4,0,0,0,1,3.62,8.57,8.57,0,0,0,3.46,2.59,58.08,58.08,0,0,0,6.23,2.27Z"/><path class="a6641ebd-81fb-47fc-8634-bef6167b7005" d="M87,633.7l2.47-23.31,160.14,17-3.53,33.24a103.72,103.72,0,0,1-2.9,16.71,19.35,19.35,0,0,1-5.75,9.74,18.39,18.39,0,0,1-10.47,4,86.88,86.88,0,0,1-17.06-.48l-16.83-1.78a33.27,33.27,0,0,1-10.09-2.4,18.5,18.5,0,0,1-6-4.13,13.62,13.62,0,0,1-3.06-5,31.42,31.42,0,0,1-1.19-5.15l-.81-.09a28.54,28.54,0,0,1-2.76,5.65,12.37,12.37,0,0,1-4.53,4.13,20.45,20.45,0,0,1-7.31,2.2,48.72,48.72,0,0,1-11.05-.15l-63.85-6.77,2.49-23.52,67.5,7.17q6.5.67,9.19-.67t3.36-7.43l1.11-10.54ZM184.53,644l-1.12,10.54q-.6,5.68,1.44,7.74c1.35,1.37,4,2.27,7.91,2.68l19.66,2.09a50.26,50.26,0,0,0,6.22.35,8.25,8.25,0,0,0,3.89-.91,5.17,5.17,0,0,0,2.24-2.84,22.69,22.69,0,0,0,1.07-5.22l1-9.93Z"/><path class="a6641ebd-81fb-47fc-8634-bef6167b7005" d="M86,779.79l-3.36-45.95,160.61-11.73,3.34,45.75-19.31,1.41-1.64-22.37-23.38,1.71,1.59,21.75-18.5,1.35L183.79,750l-79.28,5.79,1.65,22.57Z"/><path class="a6641ebd-81fb-47fc-8634-bef6167b7005" d="M260.53,895.62l-5.77-16.56L121.17,925.61l-7.71-22.14,133.59-46.55-5.83-16.74,18.48-6.44L279,889.18Z"/><path class="a6641ebd-81fb-47fc-8634-bef6167b7005" d="M181.76,1048.51,170,1028l76.46-43.69-10.12-17.7-76.46,43.69-11.63-20.36L288.11,910l11.63,20.35-46.2,26.39,10.11,17.7,46.2-26.39,11.73,20.53Z"/><path class="a6641ebd-81fb-47fc-8634-bef6167b7005" d="M244.71,1129.19l27-23.67-13-14.86-27,23.67-15.06-17.16,97.13-85.26a94.88,94.88,0,0,1,14.2-10.7q5.93-3.45,11-3a18.54,18.54,0,0,1,10.05,4.34,93.41,93.41,0,0,1,11.4,11.29,94.81,94.81,0,0,1,10.17,13.44,20.13,20.13,0,0,1,3.26,11q-.19,5.19-4.23,10.63a87.65,87.65,0,0,1-12.31,12.71l-97.13,85.25ZM344.89,1028a20,20,0,0,0-3.67-3.41,5.81,5.81,0,0,0-3.4-1.09,7.19,7.19,0,0,0-3.85,1.48,58.57,58.57,0,0,0-5.18,4.14L273,1078l13,14.86,55.76-49a42.33,42.33,0,0,0,4.71-4.68,8.45,8.45,0,0,0,2-3.62,5.3,5.3,0,0,0-.64-3.51A21,21,0,0,0,344.89,1028Z"/><path class="a6641ebd-81fb-47fc-8634-bef6167b7005" d="M340.6,1215.37l41.06-94.88L381,1120l-60.44,80.3-16.12-12.14,96.84-128.66L422,1075.07l-43.59,96.54.65.49,62.15-82.57,16.29,12.26-96.84,128.66Z"/><path class="a6641ebd-81fb-47fc-8634-bef6167b7005" d="M547.17,1200.26l6.59-18.86a62.65,62.65,0,0,0,2-6.64,8,8,0,0,0,.06-4.19,5.32,5.32,0,0,0-2.28-2.74,22.93,22.93,0,0,0-4.84-2.23,22.63,22.63,0,0,0-5.27-1.3,5.29,5.29,0,0,0-3.39.76,8,8,0,0,0-2.56,3.31,61.08,61.08,0,0,0-2.58,6.45l-5.24,15a19.06,19.06,0,0,0-1.43,7.16q.19,2.55,3.24,6.21a93.07,93.07,0,0,0,7.07,7.87q4.55,4.61,9.67,10.93a81.92,81.92,0,0,1,5.85,8.31,17.36,17.36,0,0,1,2.47,7.12,24.56,24.56,0,0,1-.63,8,100.49,100.49,0,0,1-3.21,10.75l-8.54,24.44a97.48,97.48,0,0,1-7.17,16.5q-3.47,5.91-8.11,8.07t-11.17,1.06a103.05,103.05,0,0,1-16.34-4.52,96.52,96.52,0,0,1-15-6.44,19,19,0,0,1-7.92-7.62q-2.32-4.48-1.45-11.3a91.32,91.32,0,0,1,4.64-17.6l10.55-30.21,21.56,7.53-10.56,30.21a58.31,58.31,0,0,0-2,6.55,8.51,8.51,0,0,0-.06,4.19,5,5,0,0,0,2.15,2.8A20.48,20.48,0,0,0,508,1282q6.15,2.16,8.6.42t5.2-9.63l8-22.9a38.25,38.25,0,0,0,2.32-9.12c.11-2-.76-4.22-2.61-6.74-1-1.35-2.23-2.9-3.77-4.67s-3.19-3.63-4.95-5.61-3.53-4-5.33-6.07-3.39-4-4.78-5.78a44.05,44.05,0,0,1-4.66-7.35,17.87,17.87,0,0,1-1.81-6.57,23.11,23.11,0,0,1,.65-7.11,93.34,93.34,0,0,1,2.77-9.18l5.11-14.63a96.52,96.52,0,0,1,7.17-16.49q3.46-5.92,8-8.2t11-1.23a127.2,127.2,0,0,1,31.75,11.09,18.32,18.32,0,0,1,7.94,7.85q2.25,4.68,1.29,11.46a96.52,96.52,0,0,1-4.67,17.37l-6.59,18.86Z"/><path class="a6641ebd-81fb-47fc-8634-bef6167b7005" d="M622.2,1267.3,614,1327.7l-23.23-3.14L612.39,1165l33.12,4.48a104.1,104.1,0,0,1,16.62,3.37,19.86,19.86,0,0,1,9.59,5.93q3.27,3.95,3.72,10.48a89.41,89.41,0,0,1-1,17.25l-4.62,34.13a84.15,84.15,0,0,1-3.74,17c-1.52,4.19-3.69,7.25-6.49,9.21a19.2,19.2,0,0,1-10.8,3.06,112,112,0,0,1-16.7-1.23Zm10.68-79-8.14,60.2,9.9,1.33a20.84,20.84,0,0,0,5.12.18,5.06,5.06,0,0,0,3.29-1.51,9.4,9.4,0,0,0,2-3.75,44.81,44.81,0,0,0,1.29-6.51l4.72-34.94a52.94,52.94,0,0,0,.55-6.31,7.71,7.71,0,0,0-.81-3.91,5.28,5.28,0,0,0-2.68-2.21,22.4,22.4,0,0,0-5.29-1.23Z"/><path class="a6641ebd-81fb-47fc-8634-bef6167b7005" d="M756,1333.64l-46,1.59-5.55-160.94,45.83-1.58.67,19.36-22.41.77.81,23.43,21.8-.76.64,18.54-21.8.76,2.74,79.45,22.61-.78Z"/><path class="a6641ebd-81fb-47fc-8634-bef6167b7005" d="M830.67,1228.18,823,1192.51a57.18,57.18,0,0,0-1.68-6.42,7.34,7.34,0,0,0-2.21-3.49,5.86,5.86,0,0,0-3.37-1.15,20.06,20.06,0,0,0-5,.55,21,21,0,0,0-5,1.59,5.55,5.55,0,0,0-2.58,2.53,7.85,7.85,0,0,0-.57,4.19,56.6,56.6,0,0,0,1.05,6.34l20.38,95.07a59.79,59.79,0,0,0,1.73,6.62,7.84,7.84,0,0,0,2.23,3.58,5.44,5.44,0,0,0,3.39,1.25,20.53,20.53,0,0,0,5.19-.59,20,20,0,0,0,4.78-1.54,5.55,5.55,0,0,0,2.58-2.53,7.87,7.87,0,0,0,.56-4.19,58.18,58.18,0,0,0-1.13-6.74l-7.81-36.48,22.12-4.74,7.82,36.48a97.84,97.84,0,0,1,2.5,18q.12,6.86-2.74,11a19,19,0,0,1-8.81,6.58,94.52,94.52,0,0,1-15.51,4.47,102.6,102.6,0,0,1-16.78,2.45q-6.62.27-11-2.44t-7-9a96.7,96.7,0,0,1-5.05-17.26l-20.38-95.08a88.4,88.4,0,0,1-2.32-17.64q0-6.87,2.92-11.15a19.34,19.34,0,0,1,9.09-6.74,100.53,100.53,0,0,1,15.91-4.56,95.35,95.35,0,0,1,16-2.28,18.63,18.63,0,0,1,10.75,2.49q4.33,2.71,7,8.92a95.5,95.5,0,0,1,5,17.16l7.65,35.68Z"/><path class="a6641ebd-81fb-47fc-8634-bef6167b7005" d="M945.35,1288.6l-21.87,8.46-58.07-150.2,21.86-8.46Z"/><path class="a6641ebd-81fb-47fc-8634-bef6167b7005" d="M1031.68,1245.23l-18-31-17.09,9.94,18,31-19.73,11.48-65-111.72a95.06,95.06,0,0,1-7.77-16q-2.24-6.48-.86-11.41a18.49,18.49,0,0,1,6.19-9,93.31,93.31,0,0,1,13.27-9,95.14,95.14,0,0,1,15.15-7.4,20.11,20.11,0,0,1,11.4-1.08q5.06,1.18,9.61,6.19a86.49,86.49,0,0,1,10.1,14.53l65,111.72Zm-80.05-117.8a20.77,20.77,0,0,0-4.07,3,5.86,5.86,0,0,0-1.71,3.13,7.13,7.13,0,0,0,.71,4.06,58.41,58.41,0,0,0,3.06,5.88l37.31,64.14,17.09-9.94-37.3-64.14A44.23,44.23,0,0,0,963,1128a8.6,8.6,0,0,0-3.18-2.63,5.32,5.32,0,0,0-3.56,0A21.53,21.53,0,0,0,951.63,1127.43Z"/><path class="a6641ebd-81fb-47fc-8634-bef6167b7005" d="M1133.68,1169.39l-36.28,30.66L993.46,1077l17.91-15.12,90.78,107.43,18.37-15.53Z"/><path class="a6641ebd-81fb-47fc-8634-bef6167b7005" d="M1090.8,1008.53l-11.65,13.1,105.7,94-15.58,17.52-105.7-94-11.79,13.25-14.62-13,39-43.86Z"/><path class="a6641ebd-81fb-47fc-8634-bef6167b7005" d="M1122.71,924l75.77,75.42,48.29,30-12.37,19.91-48.3-30-100.73-35.26,12.27-19.74,67.93,28.55.43-.69-55.34-48.81Z"/><path class="a6641ebd-81fb-47fc-8634-bef6167b7005" d="M1226.28,838.49,1191.06,829a58.67,58.67,0,0,0-6.48-1.44,7.22,7.22,0,0,0-4.11.37,5.81,5.81,0,0,0-2.57,2.47,20.75,20.75,0,0,0-1.8,4.69,21.54,21.54,0,0,0-.86,5.15,5.59,5.59,0,0,0,1.07,3.46,7.85,7.85,0,0,0,3.46,2.41,55.21,55.21,0,0,0,6.12,2l93.86,25.4a62.06,62.06,0,0,0,6.67,1.49,7.85,7.85,0,0,0,4.21-.34,5.58,5.58,0,0,0,2.67-2.45,21.32,21.32,0,0,0,1.85-4.88,20.3,20.3,0,0,0,.81-5,5.56,5.56,0,0,0-1.07-3.45,7.84,7.84,0,0,0-3.47-2.42,60.27,60.27,0,0,0-6.51-2.08l-36-9.74,5.91-21.84,36,9.74a98.61,98.61,0,0,1,17.17,6q6.15,3,8.53,7.48a18.92,18.92,0,0,1,1.82,10.84,95.55,95.55,0,0,1-3.12,15.84,104.14,104.14,0,0,1-5.5,16q-2.79,6-7.19,8.61t-11.24,2.13a96,96,0,0,1-17.66-3.4l-93.86-25.4a89,89,0,0,1-16.75-6q-6.12-3.13-8.58-7.7a19.39,19.39,0,0,1-1.83-11.17,99.84,99.84,0,0,1,3.23-16.23,94,94,0,0,1,5.29-15.25,18.65,18.65,0,0,1,7.13-8.42q4.41-2.6,11.14-2.15a94.31,94.31,0,0,1,17.57,3.38l35.22,9.53Z"/><path class="a6641ebd-81fb-47fc-8634-bef6167b7005" d="M1303.9,715.33a97.11,97.11,0,0,1,17.8,2.55q6.63,1.79,9.92,5.8a19.35,19.35,0,0,1,4,10.59,102.53,102.53,0,0,1,0,17,104.14,104.14,0,0,1-2.28,16.8q-1.57,6.43-5.38,9.85t-10.61,4.27a95.58,95.58,0,0,1-18,.09l-97-6.68a95,95,0,0,1-17.7-2.54q-6.52-1.78-9.83-5.69t-4-10.49a128.58,128.58,0,0,1,2.33-33.75,19.36,19.36,0,0,1,5.38-10q3.83-3.51,10.52-4.39a96.11,96.11,0,0,1,17.89-.09Zm-98.63,16.91a56.29,56.29,0,0,0-6.63-.15,7.3,7.3,0,0,0-4,1.15,5.9,5.9,0,0,0-2,2.93,20.06,20.06,0,0,0-.85,5q-.45,6.51,1.86,8.5c1.55,1.34,5,2.18,10.25,2.55l97,6.68a60.56,60.56,0,0,0,6.83.16,7.79,7.79,0,0,0,4.07-1.15,5.55,5.55,0,0,0,2.14-2.92,20,20,0,0,0,.85-4.94,22.88,22.88,0,0,0-.14-5.33,5.42,5.42,0,0,0-1.82-3.29,8.51,8.51,0,0,0-4-1.7,58.34,58.34,0,0,0-6.59-.76Z"/><path class="a6641ebd-81fb-47fc-8634-bef6167b7005" d="M1333.6,661.74l-160.12,17.17-5-46.61,19.26-2.07,2.5,23.31L1214,651l-2.41-22.5,19.25-2.07,2.41,22.5,97.9-10.5Z"/><path class="a6641ebd-81fb-47fc-8634-bef6167b7005" d="M1319.29,567.59,1163.66,609l-12-45.3,18.71-5,6,22.66,23.05-6.13-5.81-21.87,18.72-5,5.81,21.86,95.15-25.29Z"/><path class="a6641ebd-81fb-47fc-8634-bef6167b7005" d="M1272.3,434.44l18.51,42.19-147.48,64.68-18.42-42,17.74-7.78,9,20.54,21.47-9.42-8.76-20,17-7.45,8.76,20,72.8-31.93-9.09-20.72Z"/><path class="a6641ebd-81fb-47fc-8634-bef6167b7005" d="M1223.45,351.14,1248.2,390l-135.82,86.53-24.64-38.69,16.33-10.4,12,18.91,19.77-12.6-11.72-18.39,15.65-10,11.71,18.4,67-42.72L1206.43,362Z"/></svg>