<svg id="e61c0edf-cae5-4610-be19-2c20a421b965" data-name="Layer 1" xmlns="http://www.w3.org/2000/svg" width="30" height="30" viewBox="0 0 30 30"><path d="M9.83,13.21,8.06,17.42l.09,0a18.41,18.41,0,0,1,1.34-1.69c1-1,2.06-2,3.15-3a1.85,1.85,0,0,1,1.06-.29c.7-.05,1.4,0,2,0l-2.18,4.93.09,0c.67-.81,1.29-1.65,2-2.41S17.2,13.6,18,12.89a.43.43,0,0,1,.32-.14c.82.18,1.64.39,2.44.58-.58,1.42-1.14,2.76-1.72,4.18.91-1.06,1.73-2.05,2.59-3,.57-.63.59-.61,1.35-.23a11.48,11.48,0,0,1,4.73,4,5.17,5.17,0,0,1,.91,3.28A4.21,4.21,0,0,1,25.83,25a13.26,13.26,0,0,1-4.57,1.19c-2.41.19-4.84.34-7.27.35a28.56,28.56,0,0,1-8-.89,11.33,11.33,0,0,1-2.32-.92,4,4,0,0,1-1.89-5.51,8.87,8.87,0,0,1,3-3.61,15.44,15.44,0,0,1,4.85-2.38Z" fill="white"/><path d="M10.43,3.45c.36.19.71.34,1,.53a1.78,1.78,0,0,1,.61,2.13,6,6,0,0,1-.93,1.65c-1,1.3-.9,2.32.34,3.36A2.81,2.81,0,0,1,9.38,8.65a3.35,3.35,0,0,1,.71-2.34A2.29,2.29,0,0,0,10.43,3.45Z" fill="white"/><path d="M21.69,11.13a3,3,0,0,1-1.5-4.66A2.5,2.5,0,0,0,21,4.91a9.48,9.48,0,0,0-.22-1.4,9,9,0,0,1,.88.44,1.85,1.85,0,0,1,.64,2.28,5,5,0,0,1-.81,1.41C20.35,9,20.4,10,21.69,11.13Z" fill="white"/><path d="M15.59,3.51c1.37.52,1.8,1,1.65,2.37a3.19,3.19,0,0,1-.92,1.8,2.11,2.11,0,0,0-.59,2.37,5.71,5.71,0,0,0,.73,1,2.93,2.93,0,0,1-1.53-4.4,6.36,6.36,0,0,1,.43-.59,2.09,2.09,0,0,0,.27-2.39l-.06-.17Z" fill="white"/></svg>