<svg id="acdbdb82-82b0-4016-8e83-05597ff0451e" data-name="Layer 1" xmlns="http://www.w3.org/2000/svg" width="30" height="30" viewBox="0 0 30 30"><defs><style>.e8d5944b-4ecc-4948-bd61-e3f750e5fce3{fill:#FFFFFF;}</style></defs><path class="e8d5944b-4ecc-4948-bd61-e3f750e5fce3" d="M27.58,16.2A3.21,3.21,0,0,0,23.09,13c-.06-.41.26-.51.45-.69a4.38,4.38,0,0,0,.91-5A4.77,4.77,0,0,0,19.9,4.69a.77.77,0,0,1-.69-.19,6.37,6.37,0,0,0-5.57-1.69c-.22,0-.45,0-.67.13A18.38,18.38,0,0,0,11,4.38a1.43,1.43,0,0,1-1.83.4,2.12,2.12,0,0,0-1-.12A4.65,4.65,0,0,0,3.9,7.25a4.58,4.58,0,0,0,.3,5.17,4.08,4.08,0,0,1,.87,3c0,.43,0,.86,0,1.28a5.93,5.93,0,0,1-1.7,4.52,3.64,3.64,0,0,0,0,4.88,3.75,3.75,0,0,0,5,.45.4.4,0,0,1,.6,0,4.72,4.72,0,0,0,2.77.76c2.16,0,4.31,0,6.46,0a4.38,4.38,0,0,0,4.76-3.53c.1-.32.19-.36.52-.26a3.13,3.13,0,0,0,4.17-3.08C27.59,19,27.59,17.61,27.58,16.2ZM13.19,22.53a.9.9,0,0,1-1,1,.93.93,0,0,1-.88-1c0-.85,0-1.7,0-2.56s0-1.7,0-2.55c0-.68.35-1.07.9-1.08a.93.93,0,0,1,.95,1C13.21,19.09,13.22,20.81,13.19,22.53Zm5.41-.1c0,.71-.36,1.13-.93,1.13s-.92-.4-.92-1.14c0-1.66,0-3.31,0-5,0-.73.35-1.14.93-1.14s.91.41.92,1.14,0,1.66,0,2.49S18.61,21.6,18.6,22.43ZM21.24,11.7a2.34,2.34,0,0,1-1.5,0,1.22,1.22,0,0,0-1.42.39,4.39,4.39,0,0,1-4.91,1.31,7.57,7.57,0,0,1-1.3-.66,3.36,3.36,0,0,0-3.7.31,2.14,2.14,0,0,0-.71,1.64c0,1.47,0,2.94,0,4.42s0,2.94,0,4.41a1.68,1.68,0,0,1-2.29,1.69,1.73,1.73,0,0,1-.73-3A7,7,0,0,0,6.77,18.1a49.33,49.33,0,0,0,.07-5.3c0-.34-.29-.55-.54-.76a3.11,3.11,0,0,1,.82-5.43,2.94,2.94,0,0,1,2.63.24c.72.38,1.1.33,1.57-.34a4.42,4.42,0,0,1,5.89-1.17c.06,0,.16.07.22.12a3.76,3.76,0,0,0,3.23,1.09,2.6,2.6,0,0,1,2.43,2.52A2.72,2.72,0,0,1,21.24,11.7Zm4.54,8.63a1.35,1.35,0,1,1-2.7,0c0-.74,0-1.49,0-2.23s0-1.45,0-2.18a1.35,1.35,0,1,1,2.7,0Q25.81,18.13,25.78,20.33Z"/></svg>