<svg id="ec78ed3e-5c06-4eb7-a6df-93d80745c806" data-name="Layer 1" xmlns="http://www.w3.org/2000/svg" width="30" height="30" viewBox="0 0 30 30"><path d="M10,24.7h5.77c0-.15,0-.29,0-.42-.14-2.22-.32-4.44-.41-6.67a14.54,14.54,0,0,1,.18-2.79,5,5,0,0,1,.62-1.63,14.77,14.77,0,0,0,1.3-4,29.88,29.88,0,0,0,.37-6.33c0-.87.15-1,1-1s1.49,0,2.24,0c.58,0,.78.22.8.8.06,1.83,0,3.68.21,5.5A28.1,28.1,0,0,0,23,12a2.25,2.25,0,0,0,.37.85,5.84,5.84,0,0,1,1,4c-.07,2.45-.26,4.91-.39,7.36,0,.16,0,.31,0,.54h3.46c.6,0,.8.21.78.79a2.56,2.56,0,0,1-2.71,2.67H4.6A2.53,2.53,0,0,1,1.89,25.6c0-.67.16-.88.82-.88h5.9V20.59l-.51-.14a3.26,3.26,0,0,1-2.37-3c0-1.07,0-2.15,0-3.22,0-.52.22-.74.74-.74h5.61c.4,0,.73.15.74.55a31.09,31.09,0,0,1-.05,3.74A3.18,3.18,0,0,1,10,20.57ZM20.51,5.78c-.4,0-.8,0-1.2,0-.1,0-.24.2-.26.32-.12,1-.18,2-.34,2.92a12.89,12.89,0,0,1-1.49,4.73,4,4,0,0,0-.56,1.76,43.09,43.09,0,0,0,.16,6.91c.06.75.15,1.5.22,2.26h5.51c0-.17.08-.32.09-.47.14-2.44.3-4.88.39-7.32a4.92,4.92,0,0,0-.86-3.5A1.21,1.21,0,0,1,22,13,16.15,16.15,0,0,1,20.78,8.4C20.67,7.54,20.6,6.67,20.51,5.78ZM26.7,26H3.29c.25.71.49.89,1.17.89H25.53C26.21,26.91,26.44,26.74,26.7,26ZM7,14.75c0,1-.06,2,0,2.92a1.76,1.76,0,0,0,1.38,1.54,3.74,3.74,0,0,0,1.11.09,2,2,0,0,0,2-2c0-.76,0-1.53,0-2.29a1.57,1.57,0,0,0-.05-.3ZM19.78,4.5c.88,0,.8.1.79-.65,0-.91.13-.77-.84-.78-.69,0-.69,0-.69.67S19,4.5,19.78,4.5Z" fill="white"/><path d="M19.83,15.19h2c.5,0,.71.19.71.7,0,1.32,0,2.65,0,4,0,.48-.21.69-.68.69q-2,0-4,0a.58.58,0,0,1-.66-.66q0-2,0-4c0-.47.21-.68.68-.68Zm1.41,1.26c-.91,0-1.76,0-2.61,0a.33.33,0,0,0-.23.21c0,.87,0,1.74,0,2.6h2.85Z" fill="white"/><path d="M10.5,14c1-.37,1.46-.1,1.6,0,.3.24.33.65.18,2.67-.17,2.29-.27,2.48-.41,2.66-.78.95-2.4.87-3.3.62A3.92,3.92,0,0,1,6.39,18.5a4.23,4.23,0,0,1-.1-4.36" fill="white"/><path d="M20.58,25a45.93,45.93,0,0,1,6.14,0c1.17.11,1.3.3.71,1.23s-1,1.14-1.59,1.22a95.38,95.38,0,0,1-12.66.29,69.3,69.3,0,0,1-8.36-.7c-3.25-.56-3.35-1.34-.4-2" fill="white"/><path d="M18.17,25.89c-1.22.86-1.72.22-1.88-.05-.36-.59-.4-1.56-.22-6.37.14-3.75-.39-4.22.43-6.17.58-1.37,1-1.26,1.6-2.87a10.93,10.93,0,0,0,.81-4.67c-.11-1.64-.61-2.57-.13-2.95s1.13-.11,1.65.27c1.59,1.19-.25,4,1.07,8.08.5,1.57.8,1.26,1.36,3a18.81,18.81,0,0,1,.62,6.36,43,43,0,0,1-.35,5.09" fill="white"/></svg>