<svg id="a4da4ba4-8572-496d-ab71-4323def85724" data-name="Layer 1" xmlns="http://www.w3.org/2000/svg" width="30" height="30" viewBox="0 0 30 30"><path d="M3.46,14.86H24.11c0,.43,0,.84,0,1.25a.47.47,0,0,0,.19.34,3.51,3.51,0,0,1,2.22,3,3.68,3.68,0,0,1-2,3.61,6.37,6.37,0,0,1-3.68.95.93.93,0,0,0-.77.26,11.76,11.76,0,0,1-1.07.86h4.87a2.76,2.76,0,0,1-1.59,2.56,4.23,4.23,0,0,1-1.82.52c-4.48,0-9,0-13.45,0A3.41,3.41,0,0,1,3.78,25.7a4.41,4.41,0,0,1,0-.54H8.63A12.48,12.48,0,0,1,3.46,14.86Zm18.37,7.61a4.81,4.81,0,0,0,2.42-1A2,2,0,0,0,23.86,18c-.28.77-.52,1.56-.86,2.31S22.24,21.71,21.83,22.47Z" fill="white"/><path d="M14.25,13.42a4.3,4.3,0,0,1-3.19-3.18A4.75,4.75,0,0,1,12.15,6a3.4,3.4,0,0,0,.31-4.22c.55.28,1.06.51,1.54.79a2.51,2.51,0,0,1,1.14,2.55,4.86,4.86,0,0,1-1.4,3.05,3.61,3.61,0,0,0-1.14,2.42A3.07,3.07,0,0,0,14,13.25Z" fill="white"/><path d="M16.38,7.19a2.22,2.22,0,0,1-.07,2.42,8.27,8.27,0,0,0-.61,1,2.22,2.22,0,0,0,.49,2.74l-.06,0a2.28,2.28,0,0,1-1.51-3c.32-.63.75-1.2,1.11-1.82C16,8.11,16.17,7.63,16.38,7.19Z" fill="white"/></svg>