<svg id="eaa38488-a9f2-4629-a1bd-41e99a5a37bf" data-name="Layer 1" xmlns="http://www.w3.org/2000/svg" width="30" height="30" viewBox="0 0 30 30"><path d="M26.63,24.91a12.34,12.34,0,0,1-1.23-1.17c-.37-.39-.33-.74,0-1.16a4.89,4.89,0,0,0,.37-6.08,8,8,0,0,0-3.47-2.79c-.42-.19-.4-.34-.19-.69a4.82,4.82,0,0,0-.64-6.14A10,10,0,0,0,18.94,5a13,13,0,0,0-8.57-1A10.25,10.25,0,0,0,5.28,6.29a5.35,5.35,0,0,0-2,4.25,5,5,0,0,0,1.31,3.18c.3.35.35.65,0,1A15,15,0,0,1,3.33,16a.81.81,0,0,0-.38.9.75.75,0,0,0,.8.56,3.79,3.79,0,0,0,.67-.06l3.32-.66-.24.54A4.88,4.88,0,0,0,7.11,20,5.85,5.85,0,0,0,10,24.09a13.31,13.31,0,0,0,11.21,1.24,1.22,1.22,0,0,1,.82.06,10,10,0,0,0,4.14,1c.42,0,.75-.1.88-.53S27,25.17,26.63,24.91ZM13.17,9.45a1.15,1.15,0,0,1,1.08,1.08,1.1,1.1,0,0,1-1.06,1.08,1.08,1.08,0,0,1-1.1-1.09A1.13,1.13,0,0,1,13.17,9.45Zm-2.45,1.07a1.11,1.11,0,0,1-1,1.1,1.08,1.08,0,0,1-1.09-1,1.07,1.07,0,1,1,2.13-.06Zm4.89,0a1.1,1.1,0,0,1,1-1.09,1.11,1.11,0,0,1,1.1,1.1,1.07,1.07,0,0,1-2.14,0ZM23.7,23.88c.07.13.14.26.2.4a2.57,2.57,0,0,1,0,.27,6.71,6.71,0,0,1-1.23-.61,1.59,1.59,0,0,0-1.71-.14,11.76,11.76,0,0,1-8.86-.3,8.52,8.52,0,0,1-2.5-1.8,3.36,3.36,0,0,1-.06-4.78,7.77,7.77,0,0,1,4.17-2.41,11.82,11.82,0,0,1,8.56.86A5.28,5.28,0,0,1,25,18.18,3.53,3.53,0,0,1,24,22C23.22,22.77,23.2,22.87,23.7,23.88Z" fill="white"/><path d="M16.83,18.44a1.05,1.05,0,0,0-1.08,1,1.1,1.1,0,0,0,1.1,1.08,1.07,1.07,0,0,0,1-1.08A1,1,0,0,0,16.83,18.44Z" fill="white"/><path d="M20.36,18.44a1,1,0,0,0-1.08,1,1.1,1.1,0,0,0,1,1.11,1.12,1.12,0,0,0,1.12-1.08A1.05,1.05,0,0,0,20.36,18.44Z" fill="white"/><path d="M13.34,18.43a1,1,0,0,0-1.07,1.09,1.05,1.05,0,0,0,1.13,1,1.08,1.08,0,0,0,1-1.13A1.05,1.05,0,0,0,13.34,18.43Z" fill="white"/></svg>