<svg id="bd5a9034-d251-4907-b727-f051b2731f03" data-name="Layer 1" xmlns="http://www.w3.org/2000/svg" width="30" height="30" viewBox="0 0 30 30"><path d="M21.13,9.47a9.57,9.57,0,0,0-.25,1.1.68.68,0,0,0,.18.56c.09.08.37,0,.52-.05.52-.28,1-.6,1.62-1,.06.73.09,1.37.19,2a.9.9,0,0,0,.35.61c.1.06.42-.15.56-.3s.52-.65.84-1c.45.59.89,1.13,1.26,1.7a1,1,0,0,1,.05.68,18.57,18.57,0,0,1-3.57,7.46,18.68,18.68,0,0,1-2.1,2.43,9.68,9.68,0,0,1-8.58,2.62,3.81,3.81,0,0,1-3.38-2.72,4.12,4.12,0,0,1,1.1-4.69,9.22,9.22,0,0,1,2.49-1.67A12.15,12.15,0,0,0,17.48,13c.7-1,1.41-1.91,2-2.91A1.23,1.23,0,0,1,21.13,9.47Z" fill="white"/><path d="M9.31,3.6c1.88.13,3.67.55,4.82,2.33a3.49,3.49,0,0,1,.56,2.75,2.31,2.31,0,0,1-3.57,1.1A1.33,1.33,0,0,1,11,7.85c.2-.25.45-.49.13-.78s-.61,0-.81.26a2.19,2.19,0,0,0,1.14,3.56,1.56,1.56,0,0,1,1.19,1.26c.42,1.41.46,1.43-.89,2.09a8.42,8.42,0,0,1-3.86.9c-.48,0-.8-.15-.85-.68A1.53,1.53,0,0,0,6.9,14,1.67,1.67,0,0,1,7.25,12a2.15,2.15,0,0,0-1-3.53c-.23-.06-.52.12-.79.19.17.2.31.49.53.59a1.39,1.39,0,0,1,.81,2,2.25,2.25,0,0,1-3.69.48,4.15,4.15,0,0,1-.2-4.63A7.36,7.36,0,0,1,9.31,3.6Z" fill="white"/><path d="M22,10c.11-1.17.11-1.17-1.16-1.37a2.14,2.14,0,0,1,2.57-.91.71.71,0,0,0,1-.32c.48-.66,1-1.25,1.49-1.92S26.6,5,27,5.36l.35.29c.42.33.5.62.07,1.06-.62.61-1.16,1.31-1.73,2,0,0,0,.08-.08.19,1,.76,1.07,1.87,1,3.24L25.79,11c-.57-.74-.67-.74-1.27,0-.08.09-.16.19-.34.38-.06-.62-.09-1.13-.15-1.64s-.32-.68-.8-.42S22.49,9.75,22,10Z" fill="white"/></svg>