<svg id="f5fcd174-d28e-49ae-abb1-4b71dd9902a7" data-name="Layer 1" xmlns="http://www.w3.org/2000/svg" width="30" height="30" viewBox="0 0 30 30"><path d="M3.66,14.9A3.59,3.59,0,0,0,6,14.76a3.75,3.75,0,0,0,1.76-1.43c.06,0,.07.05.1.08a5.07,5.07,0,0,0,2,1.51,3.79,3.79,0,0,0,1,.28,4,4,0,0,0,.92,0,4.55,4.55,0,0,0,3-1.59,3.92,3.92,0,0,0,.25-.32l.08-.09a.94.94,0,0,1,.09.12,4.47,4.47,0,0,0,1.14,1.07A4.06,4.06,0,0,0,18,15a3.75,3.75,0,0,0,.88.05,4,4,0,0,0,1.86-.59A4.65,4.65,0,0,0,22,13.36l.06-.09c.06,0,.08.07.11.11a4.54,4.54,0,0,0,1.41,1.13A4.71,4.71,0,0,0,24.7,15a3,3,0,0,0,1.57-.09l.13,0h0a.25.25,0,0,1,0,.08V25.09A1.94,1.94,0,0,1,24.84,27a1.73,1.73,0,0,1-.32,0H5.66a1.94,1.94,0,0,1-1.93-1.53,1.74,1.74,0,0,1,0-.39v-.49c0-1,0-2,0-3,0-.72,0-1.45,0-2.17,0-.53,0-1.06,0-1.59V15.23A1.87,1.87,0,0,1,3.66,14.9ZM14,26.25a.62.62,0,0,0,0-.19V16.68a.34.34,0,0,0,0-.1.29.29,0,0,0,0-.09H7.78l-.1,0v9.65a.19.19,0,0,0,0,.08c.15,0,5.57,0,6.22,0Zm5.86-4.32h2.21a.55.55,0,0,0,.5-.44,1.09,1.09,0,0,0,0-.18c0-1.4,0-2.79,0-4.19a.41.41,0,0,0,0-.11.56.56,0,0,0-.46-.51H17.69a.55.55,0,0,0-.52.45,1.09,1.09,0,0,0,0,.18V21.4a.53.53,0,0,0,.42.51l.19,0Z" fill="white"/><path d="M10.18,3h4.44s0,.07,0,.09a.41.41,0,0,1,0,.11v7.38l-.1,0H8.93a.37.37,0,0,1-.18,0,.28.28,0,0,1,0-.09C9.22,8,9.68,5.49,10.15,3,10.15,3,10.16,3,10.18,3Z" fill="white"/><path d="M9.18,3V3c-.47,2.5-.93,5-1.4,7.49l0,0H2.13l0,0a.65.65,0,0,1,0-.13l1.2-3.23L4.5,4a2.55,2.55,0,0,1,.13-.29A1.22,1.22,0,0,1,5.47,3l.14,0H9.18Z" fill="white"/><path d="M15.6,3c.14,0,4.1,0,4.23,0h0V3q.69,3.75,1.36,7.5a.11.11,0,0,1,0,0l-.08,0h-5.5a.44.44,0,0,1,0-.1.49.49,0,0,1,0-.12q0-3.58,0-7.17A.44.44,0,0,1,15.6,3Z" fill="white"/><path d="M27.91,10.53l-.05,0H22.18a.53.53,0,0,1,0-.12c-.17-.95-.35-1.9-.52-2.85l-.45-2.51-.36-2a.25.25,0,0,1,0-.09H21c.89,0,1.78,0,2.66,0a1.15,1.15,0,0,1,1.11.71c.44.93.86,1.86,1.3,2.78.6,1.32,1.22,2.63,1.82,3.94A.61.61,0,0,1,27.91,10.53Z" fill="white"/><path d="M8.57,11.44h6.06s0,.07,0,.11c0,.29,0,.58,0,.88a.34.34,0,0,1-.05.17,3.91,3.91,0,0,1-2.36,1.63,3.7,3.7,0,0,1-2.84-.5,3.93,3.93,0,0,1-1-.85.22.22,0,0,1-.05-.19l.18-1.17A.37.37,0,0,1,8.57,11.44Z" fill="white"/><path d="M21.38,11.45l.09.61c0,.17.05.35.07.52a.17.17,0,0,1,0,.15,3.7,3.7,0,0,1-2.18,1.39,3.55,3.55,0,0,1-2.59-.47,4.16,4.16,0,0,1-1.07-1,.38.38,0,0,1-.08-.24c0-.27,0-.55,0-.83a.77.77,0,0,1,0-.15c.15,0,4,0,5.64,0Z" fill="white"/><path d="M22.34,11.45c.14,0,5.73,0,5.9,0s.06.12,0,.19-.09.3-.15.45a3.31,3.31,0,0,1-1.27,1.61,2.88,2.88,0,0,1-1.36.47,3,3,0,0,1-1.57-.32,3.46,3.46,0,0,1-1.37-1.2.53.53,0,0,1-.08-.24c0-.25-.08-.49-.11-.74Z" fill="white"/><path d="M1.71,11.45l0,0h6s0,.06,0,.08a3.06,3.06,0,0,1-3.08,2.61,2.91,2.91,0,0,1-1.83-.68,3.1,3.1,0,0,1-1-1.67,1.74,1.74,0,0,1-.05-.22A.34.34,0,0,1,1.71,11.45Z" fill="white"/></svg>