<svg id="a391e894-d568-4423-8556-413f68985954" data-name="Layer 1" xmlns="http://www.w3.org/2000/svg" width="30" height="30" viewBox="0 0 30 30"><path d="M15,17.34c3.34,0,6.69,0,10,0,.52,0,.65-.17.64-.66,0-1,0-2,0-2.94,0-.78.32-1.08,1.1-1.07s1.08.29,1.08,1.09c0,2.13,0,4.25,0,6.38,0,.81-.27,1.07-1.09,1.07s-1.08-.28-1.09-1.08c0-.4,0-.8,0-1.19s-.11-.41-.39-.39-.36,0-.55,0H4.94c-.49,0-.66.15-.61.62a9.19,9.19,0,0,1,0,1c0,.73-.34,1-1.12,1s-1.06-.27-1.06-1c0-2.37,0-4.75,0-7.12,0-1.1,0-2.2,0-3.29,0-.73.31-1,1-1s1.14.25,1.15,1c0,2.3,0,4.59,0,6.88,0,.66,0,.67.66.67Z" fill="white"/><path d="M15,16.77H5.86c-.71,0-1-.31-1-1a.86.86,0,0,1,1-.95H24c.83,0,1.17.33,1.12,1.09a.83.83,0,0,1-1,.84H15Z" fill="white"/><path d="M8.41,14.12c-.6,0-1.2,0-1.79,0a1.28,1.28,0,0,1-1.28-1.66,9.21,9.21,0,0,1,.22-1.07,1.16,1.16,0,0,1,1.52-.83c1.2.39,2.38.82,3.56,1.26a1.25,1.25,0,0,1-.49,2.39c-.58,0-1.16,0-1.74,0Z" fill="white"/></svg>