<svg id="b23df484-277b-4def-b0d7-86461ab213c8" data-name="Layer 1" xmlns="http://www.w3.org/2000/svg" width="30" height="30" viewBox="0 0 30 30"><path d="M1.78,15A13.22,13.22,0,1,1,14.91,28.24,13.22,13.22,0,0,1,1.78,15ZM15,27.22A12.22,12.22,0,1,0,2.77,14.76,12.23,12.23,0,0,0,15,27.22Z" fill="white"/><path d="M15,3.45A11.57,11.57,0,1,1,3.43,14.85,11.53,11.53,0,0,1,15,3.45Zm0,22.93A11.37,11.37,0,1,0,3.63,14.55,11.37,11.37,0,0,0,15,26.38Z" fill="white"/><path d="M15.37,10.29c0,.82,0,1.63,0,2.45a.75.75,0,0,1-.49.79l-1.36.59a.69.69,0,0,0-.46.74c.1,2.37.18,4.73.27,7.1,0,.08,0,.16,0,.24,0,.56-.22.87-.65.87s-.67-.34-.65-.88c.09-2.39.16-4.79.27-7.19a.87.87,0,0,0-.64-1c-.39-.15-.76-.32-1.14-.49a.73.73,0,0,1-.5-.78c0-1.66,0-3.32,0-5,0-.52.27-.83.67-.82a.73.73,0,0,1,.63.81V11c0,.27,0,.56.35.56S12,11.23,12,11v-3c0-.64.22-1,.65-1s.66.35.66,1c0,1,0,2.05,0,3.08,0,.27,0,.55.38.54s.31-.3.31-.54V7.83c0-.54.28-.89.67-.88s.65.34.66.89v2.45Z" fill="white"/><path d="M18.24,17.15l-.16,5a.84.84,0,0,0,.93.93c.6,0,1-.3,1-.85V7.47a.49.49,0,0,0-.5-.52c-.27,0-.44.15-.66.47A13.72,13.72,0,0,0,17,14.7v.46a1.21,1.21,0,0,0,.53,1.08l.4.28A.71.71,0,0,1,18.24,17.15Z" fill="white"/></svg>