<svg id="bf0e5707-1e21-487c-81e3-424f72d1dbb0" data-name="Layer 1" xmlns="http://www.w3.org/2000/svg" width="30" height="30" viewBox="0 0 30 30"><path d="M24.84,19.08s0,0,0,0c-.36-.1-.73-.19-1.08-.31a1,1,0,0,1-.44-.38l-.72-1a1,1,0,0,1-.14-.82c.25-.9.48-1.79.73-2.69.5-1.9,1-3.79,1.52-5.69a1,1,0,0,1,.58-.69L26.34,7a1.22,1.22,0,0,1,.82-.08l.76.21a.4.4,0,0,1,.31.53l-1.89,7c-.36,1.36-.73,2.72-1.09,4.09A.4.4,0,0,1,24.84,19.08Z" fill="white"/><path d="M28.11,11.19c-.06.24-.11.47-.17.71-.29,1.09-.59,2.19-.88,3.29a4.22,4.22,0,0,1-.18.45.12.12,0,0,1-.16.07c-.23-.07-.26-.09-.21-.32.08-.38.18-.75.28-1.12.25-.94.5-1.89.76-2.83a3.47,3.47,0,0,1,.16-.41.11.11,0,0,1,.17-.06h.06C28.09,11,28.1,11,28.11,11.19Z" fill="white"/><path d="M11.91,21.45l-1.61.93a1,1,0,0,1,.42-1.05A1,1,0,0,1,11.91,21.45Z" fill="white"/><path d="M10.58,22.87l1.6-.93a.94.94,0,0,1-.4,1A1,1,0,0,1,10.58,22.87Z" fill="white"/><path d="M23.32,7.28l-3.48-.93L10.27,3.78a4,4,0,0,0-1.91-.11c-.92.19-1.85.38-2.77.59a1.37,1.37,0,0,0-1.07,1c-.15.52-.28,1-.42,1.56-.06.21-.12.41-.17.61H3.84a1.46,1.46,0,0,0-.69,0,1.59,1.59,0,0,0-1,.92,3.9,3.9,0,0,0-.35,1.42,11.49,11.49,0,0,0,.17,3A3.66,3.66,0,0,0,3.12,15l.66.58a1.89,1.89,0,0,1,.55.76,2.81,2.81,0,0,1,.11,1.22c0,.42-.13.84-.18,1.27a2.58,2.58,0,0,0,.44,2,.15.15,0,0,1,0,.17c-.42.71-.82,1.42-1.23,2.13a.3.3,0,0,0,.12.47l.92.53A.3.3,0,0,0,5,24c.38-.64.75-1.29,1.13-1.94l0-.07.6.3a17.3,17.3,0,0,1,1.66.85A3.54,3.54,0,0,1,9.69,24.4a1,1,0,0,1,.19.49c0,.27,0,.53,0,.8a.69.69,0,0,0,.71.71h1.34a.69.69,0,0,0,.74-.74c0-.46,0-.92,0-1.38a.22.22,0,0,1,.06-.15l.58-.59a.17.17,0,0,0,0-.12V20.59a.13.13,0,0,0-.06-.11c-.19-.09-.37-.2-.55-.29a.13.13,0,0,1-.09-.15V14.4l.88.24,7.3,1.95a.53.53,0,0,0,.69-.4c.15-.57.31-1.14.46-1.71L23.74,8A.54.54,0,0,0,23.32,7.28ZM5.94,18.88l-.81,1.4-.06.1L5,20.29a2.2,2.2,0,0,1-.19-1.36c0-.42.13-.84.18-1.26a3.38,3.38,0,0,0-.14-1.48,2.27,2.27,0,0,0-.66-1l-.75-.66a3.1,3.1,0,0,1-.93-1.76,11.17,11.17,0,0,1-.2-2.07,6,6,0,0,1,.14-1.53,2,2,0,0,1,.41-.88A.89.89,0,0,1,3.78,8l0,.11c-.09.35-.2.7-.27,1a1.74,1.74,0,0,0,.25,1.35c.25.4.52.78.8,1.15a2.34,2.34,0,0,0,1.31.87l3.58,1,.08,0-3,5.15h0C6.2,18.55,6.11,18.58,5.94,18.88Zm3.32,1.61a.12.12,0,0,0-.08.12V23a8,8,0,0,0-1.34-.8l-1.4-.68L6.72,21l.77-1.33c.13-.23.09-.36-.13-.5l-.06,0,2.56-4.43a.37.37,0,0,1,0,.09v5.24a.11.11,0,0,1-.08.12Zm11.68-7-.77-.21-5.92-1.58-.38-.1a.38.38,0,1,1,.2-.73L18.18,12l2.94.79a.38.38,0,1,1-.18.73Zm.48-1.79-.74-.2L14.35,9.84a.38.38,0,0,1-.3-.39.36.36,0,0,1,.3-.35h.1l.46.12L21.58,11a.38.38,0,1,1-.16.73ZM22.2,9.9a.36.36,0,0,1-.32,0l-2.65-.72L14.84,8.05a.38.38,0,0,1-.25-.59.44.44,0,0,1,.33-.16l.11,0L21.5,9.06l.62.16a.36.36,0,0,1,.26.31A.35.35,0,0,1,22.2,9.9Z" fill="white"/></svg>