<svg id="b33ffd05-0592-43ce-abd0-8aa07df9cf95" data-name="Layer 1" xmlns="http://www.w3.org/2000/svg" width="30" height="30" viewBox="0 0 30 30"><path d="M6.42,18.26H23.6l-.73,3.21c-.42,1.9-.85,3.81-1.29,5.71a2,2,0,0,1-2,1.61H10.48a2,2,0,0,1-2.07-1.62C7.74,24.22,7.09,21.27,6.42,18.26Z" fill="white"/><path d="M6.07,14.5l.67.34a1.92,1.92,0,0,1-.45.18C6,15.07,6,14.87,6.07,14.5Z" fill="white"/><path d="M6.08,14.26c-.16-.38-.06-.51.23-.46a1.47,1.47,0,0,1,.36.21Z" fill="white"/><path d="M24.09,11.32H23a2.48,2.48,0,0,0,1.32-2.85A2.1,2.1,0,0,0,22,6.8H20.59c.95-.55,1.2-1,1.1-1.9a4.55,4.55,0,0,0-3.31-3.69c0,.25-.07.49-.1.74a1.5,1.5,0,0,1-1.74,1.58l-6.64,0A1.51,1.51,0,0,0,8.37,4.62c-.28.81,0,1.47,1,2.18H7.79A1.94,1.94,0,0,0,5.88,8.06a2.44,2.44,0,0,0,1.25,3.25c-.49,0-.92,0-1.34,0a4,4,0,0,0-1.16.25A2.94,2.94,0,0,0,3.09,15a2.72,2.72,0,0,0,2.77,2.19H24.13a2.77,2.77,0,0,0,2.86-3A2.77,2.77,0,0,0,24.09,11.32Z" fill="white"/></svg>