<svg id="b7c9de80-2abd-4a6e-b793-48205549de80" data-name="Layer 1" xmlns="http://www.w3.org/2000/svg" width="30" height="30" viewBox="0 0 30 30"><path d="M8.18,24.27a2.61,2.61,0,1,1,2.63-2.56A2.6,2.6,0,0,1,8.18,24.27Zm1.19-2.61A1.16,1.16,0,0,0,8.19,20.5,1.18,1.18,0,0,0,7,21.66,1.2,1.2,0,0,0,8.2,22.84,1.18,1.18,0,0,0,9.37,21.66Z" fill="white"/><path d="M22.1,24.27a2.61,2.61,0,1,1,2.63-2.57A2.59,2.59,0,0,1,22.1,24.27Zm0-3.77a1.17,1.17,0,0,0,0,2.33,1.17,1.17,0,1,0,0-2.33Z" fill="white"/><path d="M28.14,19.85V17a1.63,1.63,0,0,0-.77-1.43l-1.61-1.05a.53.53,0,0,1-.21-.26c-.56-1.71-1.13-3.43-1.66-5.16a4.17,4.17,0,0,1-.06-.94l.35,0V7.54H18.82a.31.31,0,0,1-.37-.26c-.13-.41-.3-.8-.44-1.21a.47.47,0,0,0-.51-.34H3.62c-.36,0-.43,0-.55.38C2.53,7.55,2,9,1.47,10.43a2.66,2.66,0,0,0-.06.52H2.54v8.9l-.44,0V21a12.32,12.32,0,0,0,1.36,0,.7.7,0,0,1,.87.54.29.29,0,0,0,.17.17c.24,0,.48,0,.74,0a3,3,0,0,1,1-2.23,2.89,2.89,0,0,1,2.27-.78,3,3,0,0,1,2.71,3h8a3,3,0,0,1,2.74-3,2.9,2.9,0,0,1,2,.59,2.93,2.93,0,0,1,1.18,2.42,7.84,7.84,0,0,1,.84,0,.73.73,0,0,0,.86-.44.51.51,0,0,1,.55-.28c.42,0,.84,0,1.27,0V19.85ZM15.48,6.23c.46,0,.94,0,1.42,0,0,0,.09.06.11.1l1.59,3.89a.21.21,0,0,1,0,.06h-1.5a.26.26,0,0,1-.16-.11L15.46,6.29S15.46,6.27,15.48,6.23Zm-1.76,0a.23.23,0,0,1,.17.13c.39,1.29.77,2.58,1.15,3.88a.08.08,0,0,1,0,0H13.54c-.06,0-.16-.06-.17-.12-.36-1.29-.7-2.59-1.06-3.92C12.8,6.23,13.26,6.22,13.72,6.23Zm-3.86,0h1.37l.36,4H9.49ZM6.38,9c.25-.83.5-1.66.74-2.5,0-.17.12-.24.31-.23.42,0,.84,0,1.31,0l-1.09,4H6C6.13,9.82,6.25,9.38,6.38,9ZM2.46,10.28l.76-1.85c.28-.68.56-1.36.85-2a.32.32,0,0,1,.2-.16c.45,0,.9,0,1.39,0-.13.36-.26.7-.39,1L4.19,10.1c-.05.14-.11.19-.26.18Zm.88,4.4V11h14v3.72Zm14.83,0V11.13c0-.15,0-.2.2-.2h1.29a7.71,7.71,0,0,0-.55-2h3.62c.13,0,.22,0,.26.16.56,1.81,1.13,3.62,1.69,5.43a.38.38,0,0,1,0,.12Z" fill="white"/></svg>